<svg width="859" height="261" viewBox="0 0 859 261" fill="none" xmlns="http://www.w3.org/2000/svg">
<path d="M761.655 1.74207L761.655 1.7421C764.293 3.5786 765.024 7.3267 763.306 10.1227L726.18 70.5732C725.729 71.3075 725.133 71.9301 724.432 72.3971C723.731 72.8641 722.942 73.1641 722.119 73.2754C721.297 73.3867 720.462 73.3065 719.672 73.0406C718.882 72.7748 718.157 72.33 717.547 71.738L761.655 1.74207ZM761.655 1.74207C760.387 0.859601 758.839 0.548061 757.352 0.879224C755.866 1.21028 754.569 2.15506 753.743 3.49971L753.743 3.49974L720.282 57.9746L701.218 39.526C700.099 38.4422 698.617 37.8736 697.099 37.9505C695.581 38.0273 694.158 38.7429 693.141 39.9339C692.124 41.1243 691.595 42.6928 691.667 44.2943C691.739 45.8957 692.405 47.4046 693.524 48.4878L693.698 48.3082L693.524 48.4878L717.546 71.7379L761.655 1.74207Z" fill="white" stroke="white" stroke-width="0.5"/>
<path d="M849.608 235.961C849.608 237.115 849.032 237.883 847.879 238.268H825.968C811.938 238.268 801.751 235.481 795.409 229.907C789.066 224.333 785.895 214.531 785.895 200.501V116.318H771.192C766.387 116.318 763.984 113.436 763.984 107.67V94.1197H785.895V29.8296H803.481C811.938 29.8296 818.28 31.9438 822.509 36.1721C826.929 40.4005 829.139 45.782 829.139 52.3167V205.69C829.139 212.802 833.176 216.357 841.248 216.357H847.302C848.84 216.357 849.608 217.03 849.608 218.375V235.961ZM858.546 94.1197V107.67C858.546 113.436 856.143 116.318 851.338 116.318H836.347V94.1197H858.546Z" fill="white"/>
<path d="M706.037 95.9922L723.623 94.4088C732.08 94.4088 738.422 96.523 742.65 100.751C747.071 104.787 749.281 110.073 749.281 116.608V238.269H716.415C713.34 238.269 710.842 237.211 708.92 235.097C706.998 232.983 706.037 230.196 706.037 226.737V95.9922ZM726.506 71.0567C724.392 72.9786 726.506 70.3088 726.506 71.0567V71.0567Z" fill="white"/>
<mask id="mask0_43_1115" style="mask-type:alpha" maskUnits="userSpaceOnUse" x="619" y="15" width="88" height="246">
<rect width="86.4888" height="245.052" transform="translate(619.837 15.4148)" fill="white"/>
</mask>
<g mask="url(#mask0_43_1115)">
<path d="M627.517 29.8296H645.103C653.56 29.8296 659.902 31.9438 664.131 36.1722C668.551 40.2083 670.762 45.4937 670.762 52.0285V238.268H637.896C634.821 238.268 632.322 237.211 630.4 235.096C628.478 232.982 627.517 230.195 627.517 226.736V29.8296ZM705.357 172.825H738.223C741.298 172.825 743.797 173.882 745.719 175.996C747.641 178.11 748.602 180.897 748.602 184.356V238.268H715.736C712.661 238.268 710.162 237.211 708.24 235.096C706.318 232.982 705.357 230.195 705.357 226.736V172.825ZM745.719 94.1197V133.905C745.719 154.47 735.244 164.752 714.294 164.752H677.969V143.13H693.537C697.573 143.13 700.072 142.553 701.033 141.4C701.994 140.055 702.474 137.748 702.474 134.481V105.94C702.474 98.0597 705.934 94.1197 712.853 94.1197H745.719Z" fill="white"/>
</g>
<path d="M521.814 238.268H521.237C502.21 238.268 490.486 235 486.065 228.466C483.951 225.39 482.221 222.411 480.876 219.528C479.723 216.645 478.954 212.129 478.569 205.978C477.608 194.831 477.128 182.434 477.128 168.788C477.128 155.142 477.224 145.34 477.416 139.382C477.609 133.232 478.185 127.081 479.146 120.931C480.299 114.589 481.741 110.072 483.471 107.381C485.2 104.498 487.795 101.904 491.255 99.5972C494.714 97.2908 498.75 95.8493 503.363 95.2727C507.976 94.5039 513.934 94.1195 521.237 94.1195H521.814V238.268ZM555.256 192.717C568.134 192.717 577.936 192.717 584.662 192.717C591.389 192.717 594.849 192.813 595.041 193.005C595.233 193.005 595.522 193.101 595.906 193.293C596.483 193.293 596.867 193.389 597.059 193.582C597.251 193.774 597.444 194.062 597.636 194.447C597.828 194.639 597.924 195.023 597.924 195.6C598.309 196.945 598.501 198.002 598.501 198.771V207.42C598.501 227.985 588.026 238.268 567.076 238.268H530.751V216.645H546.319C550.355 216.645 552.854 216.069 553.815 214.916C554.776 213.57 555.256 211.264 555.256 207.996V192.717ZM530.751 94.1195H567.076C588.026 94.1195 598.501 104.402 598.501 124.967V144.571C585.623 144.571 575.821 144.571 569.094 144.571C562.368 144.571 558.908 144.571 558.716 144.571C558.524 144.379 558.139 144.283 557.563 144.283C557.178 144.091 556.89 143.899 556.698 143.706C556.506 143.514 556.313 143.322 556.121 143.13C555.929 142.745 555.833 142.361 555.833 141.977C555.448 140.439 555.256 139.286 555.256 138.517V124.391C555.256 121.123 554.776 118.913 553.815 117.76C552.854 116.414 550.355 115.742 546.319 115.742H530.751V94.1195Z" fill="white"/>
<path d="M372.035 238.268H371.458C352.431 238.268 340.707 235 336.286 228.466C334.172 225.39 332.442 222.411 331.097 219.528C329.944 216.645 329.175 212.129 328.79 205.978C327.829 194.831 327.349 182.434 327.349 168.788C327.349 155.142 327.445 145.34 327.637 139.382C327.829 133.232 328.406 127.081 329.367 120.931C330.52 114.589 331.962 110.072 333.692 107.381C335.421 104.498 338.016 101.904 341.476 99.5972C344.935 97.2908 348.971 95.8493 353.584 95.2727C358.197 94.5039 364.155 94.1195 371.458 94.1195H372.035V238.268ZM448.722 192.717V207.42C448.722 227.985 438.247 238.268 417.297 238.268H380.972V216.645H396.54C400.576 216.645 403.075 216.069 404.036 214.916C404.997 213.57 405.477 211.264 405.477 207.996V198.771C405.477 195.888 405.766 194.254 406.342 193.87C407.111 193.486 407.591 193.293 407.784 193.293C407.976 193.101 408.456 193.005 409.225 193.005C410.186 192.813 410.859 192.717 411.243 192.717C423.736 192.717 436.229 192.717 448.722 192.717ZM380.972 94.1195H414.414C427.676 94.1195 436.709 96.7142 441.514 101.904C446.319 107.093 448.722 114.781 448.722 124.967V150.337C448.722 167.635 439.304 176.284 420.469 176.284H378.089V154.662H393.657C398.27 154.662 401.345 154.085 402.883 152.932C404.612 151.779 405.477 149.568 405.477 146.301V124.391C405.477 121.123 404.997 118.913 404.036 117.76C403.075 116.414 400.576 115.742 396.54 115.742H380.972V94.1195Z" fill="white"/>
<path d="M224.691 94.1197H265.053C286.002 94.1197 296.477 104.402 296.477 124.967V238.268H263.611C260.536 238.268 258.038 237.211 256.116 235.096C254.194 232.982 253.233 230.195 253.233 226.736V124.391C253.233 121.316 252.464 119.105 250.926 117.76C249.581 116.415 246.41 115.742 241.412 115.742H224.691V94.1197ZM174.24 29.8296H191.826C200.282 29.8296 206.625 31.9438 210.853 36.1721C215.274 40.2083 217.484 45.4937 217.484 52.0284V238.268H184.618C181.543 238.268 179.044 237.211 177.122 235.096C175.2 232.982 174.24 230.195 174.24 226.736V29.8296Z" fill="white"/>
<path d="M51.8933 238.268H48.4337C40.7458 238.268 34.3072 237.691 29.1179 236.538C24.1208 235.385 19.7002 233.078 15.8563 229.619C12.2045 225.967 9.32158 221.931 7.2074 217.51C5.28543 213.09 3.74785 206.459 2.59467 197.618C0.864889 184.356 0 166.578 0 144.283C0 121.796 0.0960997 105.94 0.288298 96.7143C0.672692 87.4888 1.44148 78.5517 2.59467 69.9028C3.74785 61.0617 5.28543 54.527 7.2074 50.2987C9.32158 45.8781 12.2045 41.9381 15.8563 38.4785C19.7002 34.8268 24.1208 32.5204 29.1179 31.5594C34.3072 30.4062 40.7458 29.8296 48.4337 29.8296H51.8933V238.268ZM63.4251 29.8296H100.039C114.069 29.8296 124.64 32.2321 131.751 37.037C139.055 41.842 142.707 50.2025 142.707 62.1188V88.0654C142.707 92.1016 141.361 94.1197 138.67 94.1197H102.345C99.6544 94.1197 98.0207 93.7353 97.4441 92.9665C96.8675 92.1977 96.5792 90.564 96.5792 88.0654V65.5783C96.5792 62.5032 96.0987 60.389 95.1377 59.2358C94.3689 57.8904 92.2548 57.2178 88.7952 57.2178H63.4251V29.8296ZM102.345 173.978H138.67C141.361 173.978 142.707 175.996 142.707 180.032V205.979C142.707 217.895 139.055 226.255 131.751 231.06C124.64 235.865 114.069 238.268 100.039 238.268H63.4251V210.88H88.7952C92.2548 210.88 94.3689 210.303 95.1377 209.15C96.0987 207.804 96.5792 205.594 96.5792 202.519V180.032C96.5792 177.533 96.8675 175.9 97.4441 175.131C98.0207 174.362 99.6544 173.978 102.345 173.978Z" fill="white"/>
</svg>
