<svg width="169" height="52" viewBox="0 0 169 52" fill="none" xmlns="http://www.w3.org/2000/svg">
<path d="M148.433 0.978049L148.433 0.978018C148.142 0.775735 147.785 0.703267 147.441 0.779819C147.098 0.856268 146.802 1.0736 146.615 1.37792L146.615 1.37796L140.275 11.7003L136.768 8.30672C136.768 8.30671 136.768 8.3067 136.768 8.30669C136.513 8.05953 136.172 7.9277 135.821 7.94549C135.47 7.96327 135.144 8.12874 134.912 8.39954C134.682 8.66983 134.563 9.02363 134.579 9.38287C134.595 9.74215 134.745 10.0832 135 10.3299L135 10.3299L139.646 14.8267C139.785 14.9616 139.951 15.0638 140.133 15.125C140.315 15.1863 140.508 15.2049 140.698 15.1792C140.888 15.1535 141.069 15.0843 141.23 14.9773C141.39 14.8703 141.526 14.7284 141.628 14.5622L148.809 2.87004C149.195 2.24191 149.034 1.3968 148.433 0.978049Z" fill="#FDA427" stroke="#FDA427" stroke-width="0.5"/>
<path d="M164.995 47.3918H165.076L165.153 47.3661C165.335 47.3053 165.514 47.1994 165.646 47.0245C165.778 46.8473 165.829 46.6431 165.829 46.4457V43.0442C165.829 42.8184 165.762 42.563 165.547 42.3752C165.345 42.1985 165.094 42.1539 164.883 42.1539H163.712C162.994 42.1539 162.549 41.9944 162.286 41.7629C162.036 41.5421 161.87 41.1838 161.87 40.5907V10.9256C161.87 9.53749 161.395 8.36395 160.437 7.4454C159.493 6.5035 158.118 6.07617 156.407 6.07617H153.006H152.506V6.57617V18.511H148.768H148.268V19.011V21.6318C148.268 22.2465 148.394 22.8007 148.732 23.2065C149.085 23.6298 149.594 23.8046 150.162 23.8046H152.506V39.587C152.506 42.3526 153.127 44.43 154.516 45.6503C155.878 46.847 157.996 47.3918 160.757 47.3918H164.995ZM167.558 19.011V18.511H167.058H162.764H162.264V19.011V23.3046V23.8046H162.764H165.664C166.232 23.8046 166.741 23.6298 167.093 23.2065C167.432 22.8007 167.558 22.2465 167.558 21.6318V19.011Z" fill="#FDA427" stroke="#FDA427"/>
<mask id="path-3-outside-1_1026_1086" maskUnits="userSpaceOnUse" x="136.56" y="13.5239" width="11" height="35" fill="black">
<rect fill="white" x="136.56" y="13.5239" width="11" height="35"/>
<path d="M137.56 19.3732L140.962 19.0669C142.597 19.0669 143.824 19.4759 144.642 20.2937C145.497 21.0744 145.924 22.0967 145.924 23.3606V46.892H139.568C138.973 46.892 138.49 46.6875 138.118 46.2786C137.746 45.8697 137.56 45.3306 137.56 44.6615V19.3732ZM141.519 14.5502C141.11 14.922 141.519 14.4056 141.519 14.5502Z"/>
</mask>
<path d="M137.56 19.3732L140.962 19.0669C142.597 19.0669 143.824 19.4759 144.642 20.2937C145.497 21.0744 145.924 22.0967 145.924 23.3606V46.892H139.568C138.973 46.892 138.49 46.6875 138.118 46.2786C137.746 45.8697 137.56 45.3306 137.56 44.6615V19.3732ZM141.519 14.5502C141.11 14.922 141.519 14.4056 141.519 14.5502Z" fill="#FDA427"/>
<path d="M137.56 19.3732L137.471 18.3772L136.56 18.4592V19.3732H137.56ZM140.962 19.0669V18.0669H140.917L140.872 18.071L140.962 19.0669ZM144.642 20.2937L143.935 21.0008L143.951 21.0169L143.968 21.0322L144.642 20.2937ZM145.924 46.892V47.892H146.924V46.892H145.924ZM138.118 46.2786L138.858 45.6059L138.858 45.6059L138.118 46.2786ZM141.519 14.5502L142.192 15.2902L142.519 14.9926V14.5502H141.519ZM137.65 20.3692L141.051 20.0629L140.872 18.071L137.471 18.3772L137.65 20.3692ZM140.962 20.0669C142.443 20.0669 143.371 20.4367 143.935 21.0008L145.349 19.5866C144.277 18.5151 142.751 18.0669 140.962 18.0669V20.0669ZM143.968 21.0322C144.595 21.6048 144.924 22.3489 144.924 23.3606H146.924C146.924 21.8445 146.399 20.5439 145.316 19.5552L143.968 21.0322ZM144.924 23.3606V46.892H146.924V23.3606H144.924ZM145.924 45.892H139.568V47.892H145.924V45.892ZM139.568 45.892C139.23 45.892 139.024 45.7891 138.858 45.6059L137.378 46.9513C137.955 47.5859 138.715 47.892 139.568 47.892V45.892ZM138.858 45.6059C138.687 45.4182 138.56 45.137 138.56 44.6615H136.56C136.56 45.5242 136.805 46.3212 137.378 46.9513L138.858 45.6059ZM138.56 44.6615V19.3732H136.56V44.6615H138.56ZM142.519 14.5502C142.519 14.45 142.506 14.21 142.342 13.9679C142.252 13.8368 142.128 13.7203 141.971 13.6388C141.819 13.5592 141.669 13.5302 141.546 13.5249C141.32 13.5151 141.151 13.5825 141.08 13.6139C140.995 13.6514 140.93 13.6934 140.89 13.721C140.81 13.7769 140.747 13.8352 140.707 13.8752C140.663 13.9184 140.621 13.9658 140.582 14.0146C140.563 14.0391 140.539 14.0704 140.515 14.1069C140.496 14.136 140.454 14.2017 140.417 14.2901C140.399 14.3327 140.366 14.419 140.349 14.533C140.335 14.6276 140.308 14.8872 140.461 15.1665C140.544 15.3181 140.667 15.449 140.821 15.5423C140.969 15.632 141.114 15.6681 141.227 15.681C141.432 15.7047 141.591 15.6586 141.651 15.6393C141.783 15.597 141.879 15.5358 141.907 15.5178C141.951 15.4899 141.988 15.4621 142.016 15.4404C142.072 15.3965 142.132 15.345 142.192 15.2902L140.847 13.8103C140.805 13.8484 140.787 13.862 140.788 13.8616C140.789 13.8609 140.792 13.8581 140.798 13.8539C140.804 13.8499 140.814 13.8428 140.828 13.8339C140.838 13.8276 140.92 13.7734 141.042 13.7342C141.098 13.7164 141.253 13.6709 141.455 13.6942C141.566 13.7069 141.71 13.7426 141.857 13.8317C142.01 13.9244 142.132 14.0546 142.215 14.2052C142.367 14.4825 142.34 14.7393 142.327 14.8303C142.31 14.9409 142.278 15.023 142.262 15.0608C142.229 15.1396 142.194 15.1934 142.184 15.2089C142.169 15.2318 142.156 15.2479 142.15 15.2562C142.137 15.2727 142.126 15.2842 142.116 15.2942C142.109 15.3008 142.082 15.3283 142.033 15.3619C142.01 15.3785 141.96 15.4114 141.889 15.4428C141.832 15.4681 141.674 15.5323 141.459 15.523C141.342 15.5179 141.196 15.4901 141.048 15.4126C140.895 15.3332 140.774 15.2199 140.688 15.0931C140.529 14.8595 140.519 14.6324 140.519 14.5502H142.519Z" fill="#FDA427" mask="url(#path-3-outside-1_1026_1086)"/>
<mask id="mask0_1026_1086" style="mask-type:alpha" maskUnits="userSpaceOnUse" x="120" y="3" width="18" height="49">
<rect x="121.387" y="4.28809" width="15.7285" height="46.3973" fill="white"/>
<rect x="121.387" y="4.28809" width="15.7285" height="46.3973" stroke="white"/>
</mask>
<g mask="url(#mask0_1026_1086)">
<path d="M122.373 6.07617H121.873V6.57617V44.6613C121.873 45.4272 122.088 46.0952 122.561 46.6147C123.035 47.1365 123.657 47.3918 124.38 47.3918H130.737H131.237V46.8918V10.8698C131.237 9.48377 130.764 8.32504 129.8 7.44131C128.856 6.50226 127.482 6.07617 125.775 6.07617H122.373ZM137.429 33.7339H136.929V34.2339V44.6613C136.929 45.4272 137.144 46.0952 137.616 46.6147C138.091 47.1365 138.712 47.3918 139.436 47.3918H145.793H146.293V46.8918V36.4644C146.293 35.6984 146.078 35.0305 145.605 34.5109C145.131 33.9892 144.509 33.7339 143.785 33.7339H137.429ZM145.735 19.011V18.511H145.235H138.878C138.114 18.511 137.455 18.7316 136.997 19.2527C136.551 19.7613 136.371 20.4729 136.371 21.2972V26.8176C136.371 27.3905 136.287 27.698 136.203 27.8383C136.184 27.8508 136.123 27.8861 135.978 27.9196C135.788 27.9635 135.514 27.9905 135.142 27.9905H132.131H131.631V28.4905V32.6726V33.1726H132.131H139.157C141.258 33.1726 142.926 32.657 144.066 31.5378C145.208 30.4169 145.735 28.7744 145.735 26.7061V19.011Z" fill="#FDA427" stroke="#FDA427"/>
</g>
<path d="M107.896 37.5814H108.396H108.411H108.425H108.44H108.455H108.469H108.484H108.498H108.513H108.527H108.542H108.556H108.57H108.585H108.599H108.614H108.628H108.642H108.657H108.671H108.685H108.7H108.714H108.728H108.743H108.757H108.771H108.785H108.8H108.814H108.828H108.842H108.856H108.87H108.885H108.899H108.913H108.927H108.941H108.955H108.969H108.983H108.997H109.011H109.025H109.039H109.053H109.067H109.081H109.095H109.109H109.123H109.137H109.151H109.165H109.178H109.192H109.206H109.22H109.234H109.247H109.261H109.275H109.289H109.302H109.316H109.33H109.344H109.357H109.371H109.385H109.398H109.412H109.425H109.439H109.453H109.466H109.48H109.493H109.507H109.52H109.534H109.547H109.561H109.574H109.588H109.601H109.614H109.628H109.641H109.655H109.668H109.681H109.695H109.708H109.721H109.735H109.748H109.761H109.774H109.788H109.801H109.814H109.827H109.84H109.854H109.867H109.88H109.893H109.906H109.919H109.932H109.945H109.958H109.972H109.985H109.998H110.011H110.024H110.037H110.05H110.062H110.075H110.088H110.101H110.114H110.127H110.14H110.153H110.166H110.178H110.191H110.204H110.217H110.23H110.242H110.255H110.268H110.281H110.293H110.306H110.319H110.331H110.344H110.357H110.369H110.382H110.395H110.407H110.42H110.432H110.445H110.457H110.47H110.482H110.495H110.507H110.52H110.532H110.545H110.557H110.569H110.582H110.594H110.607H110.619H110.631H110.644H110.656H110.668H110.681H110.693H110.705H110.717H110.73H110.742H110.754H110.766H110.778H110.79H110.803H110.815H110.827H110.839H110.851H110.863H110.875H110.887H110.899H110.911H110.923H110.935H110.947H110.959H110.971H110.983H110.995H111.007H111.019H111.031H111.043H111.055H111.067H111.078H111.09H111.102H111.114H111.126H111.137H111.149H111.161H111.173H111.184H111.196H111.208H111.219H111.231H111.243H111.254H111.266H111.277H111.289H111.301H111.312H111.324H111.335H111.347H111.358H111.37H111.381H111.393H111.404H111.416H111.427H111.439H111.45H111.461H111.473H111.484H111.495H111.507H111.518H111.529H111.541H111.552H111.563H111.574H111.586H111.597H111.608H111.619H111.631H111.642H111.653H111.664H111.675H111.686H111.697H111.708H111.719H111.731H111.742H111.753H111.764H111.775H111.786H111.797H111.808H111.819H111.829H111.84H111.851H111.862H111.873H111.884H111.895H111.906H111.917H111.927H111.938H111.949H111.96H111.97H111.981H111.992H112.003H112.013H112.024H112.035H112.045H112.056H112.067H112.077H112.088H112.099H112.109H112.12H112.13H112.141H112.151H112.162H112.172H112.183H112.193H112.204H112.214H112.225H112.235H112.245H112.256H112.266H112.277H112.287H112.297H112.308H112.318H112.328H112.339H112.349H112.359H112.369H112.38H112.39H112.4H112.41H112.42H112.43H112.441H112.451H112.461H112.471H112.481H112.491H112.501H112.511H112.521H112.531H112.541H112.551H112.561H112.571H112.581H112.591H112.601H112.611H112.621H112.631H112.641H112.651H112.66H112.67H112.68H112.69H112.7H112.71H112.719H112.729H112.739H112.748H112.758H112.768H112.778H112.787H112.797H112.807H112.816H112.826H112.835H112.845H112.855H112.864H112.874H112.883H112.893H112.902H112.912H112.921H112.931H112.94H112.95H112.959H112.968H112.978H112.987H112.997H113.006H113.015H113.025H113.034H113.043H113.053H113.062H113.071H113.08H113.09H113.099H113.108H113.117H113.126H113.136H113.145H113.154H113.163H113.172H113.181H113.19H113.199H113.208H113.217H113.227H113.236H113.245H113.254H113.263H113.271H113.28H113.289H113.298H113.307H113.316H113.325H113.334H113.343H113.352H113.36H113.369H113.378H113.387H113.396H113.404H113.413H113.422H113.431H113.439H113.448H113.457H113.465H113.474H113.483H113.491H113.5H113.508H113.517H113.526H113.534H113.543H113.551H113.56H113.568H113.577H113.585H113.594H113.602H113.61H113.619H113.627H113.636H113.644H113.652H113.661H113.669H113.677H113.686H113.694H113.702H113.711H113.719H113.727H113.735H113.744H113.752H113.76H113.768H113.776H113.784H113.793H113.801H113.809H113.817H113.825H113.833H113.841H113.849H113.857H113.865H113.873H113.881H113.889H113.897H113.905H113.913H113.921H113.929H113.937H113.945H113.952H113.96H113.968H113.976H113.984H113.992H113.999H114.007H114.015H114.023H114.03H114.038H114.046H114.053H114.061H114.069H114.076H114.084C114.736 37.5814 115.234 37.5861 115.576 37.5956C115.745 37.6003 115.883 37.6064 115.984 37.6144C116.034 37.6182 116.085 37.6233 116.13 37.6309C116.15 37.6342 116.179 37.6396 116.211 37.6486C116.272 37.6601 116.329 37.6788 116.378 37.6982C116.424 37.7025 116.472 37.7099 116.519 37.7218C116.607 37.7437 116.73 37.7896 116.835 37.8952M107.896 37.5814L116.835 37.8952M107.896 37.5814V38.0814V41.0368C107.896 41.6097 107.812 41.9172 107.728 42.0575C107.709 42.0699 107.648 42.1053 107.503 42.1388C107.313 42.1827 107.039 42.2096 106.668 42.2096H103.657H103.157V42.7096V46.8918V47.3918H103.657H110.683C112.783 47.3918 114.451 46.8762 115.591 45.757C116.733 44.6361 117.261 42.9935 117.261 40.9253V39.2524C117.261 39.0502 117.216 38.8148 117.147 38.5631C117.144 38.5039 117.136 38.4411 117.12 38.3784C117.104 38.3129 117.074 38.2272 117.015 38.1439C116.97 38.0596 116.911 37.9711 116.835 37.8952M107.896 37.5814L116.835 37.8952M101.928 47.3918H102.428V46.8918V19.011V18.511H101.928H101.816C100.395 18.511 99.2155 18.5853 98.287 18.7392C97.3311 18.86 96.4783 19.1622 95.7399 19.6544L96.0172 20.0705L95.7399 19.6544C95.0258 20.1305 94.4673 20.6807 94.0868 21.3122C93.6986 21.9197 93.4078 22.8727 93.1833 24.1074L93.1832 24.1073L93.1812 24.1196C92.9922 25.3293 92.8788 26.5393 92.8409 27.7497C92.8035 28.9108 92.7849 30.8137 92.7849 33.4532C92.7849 36.1016 92.8781 38.512 93.0651 40.6836C93.1403 41.8819 93.2921 42.8194 93.5456 43.453L93.5508 43.466L93.5567 43.4787C93.8302 44.0648 94.179 44.6644 94.6005 45.2777C95.1225 46.0481 96.0333 46.5683 97.2213 46.8994C98.4161 47.2324 99.9534 47.3918 101.816 47.3918H101.928ZM103.657 18.511H103.157V19.011V23.1931V23.6931H103.657H106.668C107.036 23.6931 107.303 23.7244 107.486 23.7735C107.661 23.8207 107.707 23.8703 107.711 23.8741C107.711 23.8744 107.711 23.8744 107.711 23.8741L107.721 23.8892L107.733 23.9035C107.755 23.9297 107.801 24.0059 107.838 24.1776C107.874 24.3448 107.896 24.5714 107.896 24.8659V27.5983C107.896 27.7999 107.941 28.0547 108.011 28.3392C108.021 28.473 108.059 28.5989 108.116 28.7141L108.153 28.7866L108.21 28.844L108.266 28.8998L108.322 28.9555C108.412 29.0462 108.521 29.1118 108.619 29.1607L108.724 29.2135H108.803L108.858 29.2693H109.065H109.066H109.066H109.066H109.066H109.067H109.067H109.067H109.068H109.068H109.068H109.069H109.069H109.069H109.07H109.07H109.071H109.071H109.072H109.072H109.073H109.073H109.074H109.074H109.075H109.075H109.076H109.077H109.077H109.078H109.078H109.079H109.08H109.08H109.081H109.082H109.083H109.083H109.084H109.085H109.086H109.087H109.087H109.088H109.089H109.09H109.091H109.092H109.093H109.093H109.094H109.095H109.096H109.097H109.098H109.099H109.1H109.101H109.102H109.103H109.105H109.106H109.107H109.108H109.109H109.11H109.111H109.112H109.114H109.115H109.116H109.117H109.119H109.12H109.121H109.122H109.124H109.125H109.126H109.128H109.129H109.131H109.132H109.133H109.135H109.136H109.138H109.139H109.141H109.142H109.144H109.145H109.147H109.148H109.15H109.151H109.153H109.155H109.156H109.158H109.16H109.161H109.163H109.165H109.166H109.168H109.17H109.172H109.173H109.175H109.177H109.179H109.181H109.182H109.184H109.186H109.188H109.19H109.192H109.194H109.196H109.198H109.2H109.202H109.204H109.206H109.208H109.21H109.212H109.214H109.216H109.218H109.22H109.222H109.224H109.227H109.229H109.231H109.233H109.235H109.238H109.24H109.242H109.244H109.247H109.249H109.251H109.254H109.256H109.258H109.261H109.263H109.266H109.268H109.27H109.273H109.275H109.278H109.28H109.283H109.285H109.288H109.291H109.293H109.296H109.298H109.301H109.304H109.306H109.309H109.311H109.314H109.317H109.32H109.322H109.325H109.328H109.331H109.333H109.336H109.339H109.342H109.345H109.347H109.35H109.353H109.356H109.359H109.362H109.365H109.368H109.371H109.374H109.377H109.38H109.383H109.386H109.389H109.392H109.395H109.398H109.401H109.405H109.408H109.411H109.414H109.417H109.42H109.424H109.427H109.43H109.433H109.437H109.44H109.443H109.447H109.45H109.453H109.457H109.46H109.463H109.467H109.47H109.474H109.477H109.481H109.484H109.488H109.491H109.495H109.498H109.502H109.505H109.509H109.512H109.516H109.52H109.523H109.527H109.531H109.534H109.538H109.542H109.545H109.549H109.553H109.557H109.56H109.564H109.568H109.572H109.576H109.58H109.583H109.587H109.591H109.595H109.599H109.603H109.607H109.611H109.615H109.619H109.623H109.627H109.631H109.635H109.639H109.643H109.647H109.651H109.656H109.66H109.664H109.668H109.672H109.676H109.681H109.685H109.689H109.693H109.698H109.702H109.706H109.711H109.715H109.719H109.724H109.728H109.732H109.737H109.741H109.746H109.75H109.755H109.759H109.764H109.768H109.773H109.777H109.782H109.786H109.791H109.795H109.8H109.805H109.809H109.814H109.819H109.823H109.828H109.833H109.837H109.842H109.847H109.852H109.856H109.861H109.866H109.871H109.876H109.881H109.885H109.89H109.895H109.9H109.905H109.91H109.915H109.92H109.925H109.93H109.935H109.94H109.945H109.95H109.955H109.96H109.965H109.97H109.976H109.981H109.986H109.991H109.996H110.001H110.007H110.012H110.017H110.022H110.028H110.033H110.038H110.044H110.049H110.054H110.06H110.065H110.07H110.076H110.081H110.087H110.092H110.097H110.103H110.108H110.114H110.119H110.125H110.131H110.136H110.142H110.147H110.153H110.159H110.164H110.17H110.175H110.181H110.187H110.193H110.198H110.204H110.21H110.216H110.221H110.227H110.233H110.239H110.245H110.25H110.256H110.262H110.268H110.274H110.28H110.286H110.292H110.298H110.304H110.31H110.316H110.322H110.328H110.334H110.34H110.346H110.352H110.358H110.364H110.37H110.377H110.383H110.389H110.395H110.401H110.408H110.414H110.42H110.426H110.433H110.439H110.445H110.452H110.458H110.464H110.471H110.477H110.483H110.49H110.496H110.503H110.509H110.516H110.522H110.529H110.535H110.542H110.548H110.555H110.561H110.568H110.575H110.581H110.588H110.595H110.601H110.608H110.615H110.621H110.628H110.635H110.641H110.648H110.655H110.662H110.669H110.675H110.682H110.689H110.696H110.703H110.71H110.717H110.724H110.731H110.737H110.744H110.751H110.758H110.765H110.772H110.779H110.787H110.794H110.801H110.808H110.815H110.822H110.829H110.836H110.843H110.851H110.858H110.865H110.872H110.88H110.887H110.894H110.901H110.909H110.916H110.923H110.931H110.938H110.945H110.953H110.96H110.968H110.975H110.982H110.99H110.997H111.005H111.012H111.02H111.027H111.035H111.042H111.05H111.058H111.065H111.073H111.08H111.088H111.096H111.103H111.111H111.119H111.127H111.134H111.142H111.15H111.158H111.165H111.173H111.181H111.189H111.197H111.204H111.212H111.22H111.228H111.236H111.244H111.252H111.26H111.268H111.276H111.284H111.292H111.3H111.308H111.316H111.324H111.332H111.34H111.348H111.356H111.364H111.372H111.381H111.389H111.397H111.405H111.413H111.421H111.43H111.438H111.446H111.454H111.463H111.471H111.479H111.488H111.496H111.504H111.513H111.521H111.53H111.538H111.546H111.555H111.563H111.572H111.58H111.589H111.597H111.606H111.614H111.623H111.631H111.64H111.648H111.657H111.666H111.674H111.683H111.692H111.7H111.709H111.718H111.726H111.735H111.744H111.753H111.761H111.77H111.779H111.788H111.796H111.805H111.814H111.823H111.832H111.841H111.85H111.859H111.867H111.876H111.885H111.894H111.903H111.912H111.921H111.93H111.939H111.948H111.957H111.967H111.976H111.985H111.994H112.003H112.012H112.021H112.03H112.04H112.049H112.058H112.067H112.076H112.086H112.095H112.104H112.114H112.123H112.132H112.141H112.151H112.16H112.17H112.179H112.188H112.198H112.207H112.217H112.226H112.236H112.245H112.255H112.264H112.274H112.283H112.293H112.302H112.312H112.321H112.331H112.341H112.35H112.36H112.37H112.379H112.389H112.399H112.408H112.418H112.428H112.438H112.447H112.457H112.467H112.477H112.487H112.496H112.506H112.516H112.526H112.536H112.546H112.556H112.566H112.576H112.585H112.595H112.605H112.615H112.625H112.635H112.646H112.656H112.666H112.676H112.686H112.696H112.706H112.716H112.726H112.736H112.747H112.757H112.767H112.777H112.788H112.798H112.808H112.818H112.829H112.839H112.849H112.86H112.87H112.88H112.891H112.901H112.911H112.922H112.932H112.943H112.953H112.964H112.974H112.984H112.995H113.006H113.016H113.027H113.037H113.048H113.058H113.069H113.08H113.09H113.101H113.111H113.122H113.133H113.143H113.154H113.165H113.176H113.186H113.197H113.208H113.219H113.229H113.24H113.251H113.262H113.273H113.284H113.295H113.305H113.316H113.327H113.338H113.349H113.36H113.371H113.382H113.393H113.404H113.415H113.426H113.437H113.448H113.459H113.471H113.482H113.493H113.504H113.515H113.526H113.537H113.549H113.56H113.571H113.582H113.594H113.605H113.616H113.627H113.639H113.65H113.661H113.673H113.684H113.695H113.707H113.718H113.73H113.741H113.753H113.764H113.775H113.787H113.798H113.81H113.822H113.833H113.845H113.856H113.868H113.879H113.891H113.903H113.914H113.926H113.937H113.949H113.961H113.973H113.984H113.996H114.008H114.019H114.031H114.043H114.055H114.067H114.078H114.09H114.102H114.114H114.126H114.138H114.15H114.162H114.174H114.186H114.197H114.209H114.221H114.233H114.245H114.257H114.27H114.282H114.294H114.306H114.318H114.33H114.342H114.354H114.366H114.378H114.391H114.403H114.415H114.427H114.44H114.452H114.464H114.476H114.489H114.501H114.513H114.526H114.538H114.55H114.563H114.575H114.587H114.6H114.612H114.625H114.637H114.65H114.662H114.675H114.687H114.7H114.712H114.725H114.737H114.75H114.762H114.775H114.788H114.8H114.813H114.825H114.838H114.851H114.863H114.876H114.889H114.902H114.914H114.927H114.94H114.953H114.966H114.978H114.991H115.004H115.017H115.03H115.043H115.056H115.068H115.081H115.094H115.107H115.12H115.133H115.146H115.159H115.172H115.185H115.198H115.211H115.224H115.238H115.251H115.264H115.277H115.29H115.303H115.316H115.33H115.343H115.356H115.369H115.382H115.396H115.409H115.422H115.436H115.449H115.462H115.476H115.489H115.502H115.516H115.529H115.542H115.556H115.569H115.583H115.596H115.61H115.623H115.637H115.65H115.664H115.677H115.691H115.704H115.718H115.731H115.745H115.759H115.772H115.786H115.8H115.813H115.827H115.841H115.854H115.868H115.882H115.896H115.909H115.923H115.937H115.951H115.965H115.978H115.992H116.006H116.02H116.034H116.048H116.062H116.076H116.09H116.104H116.118H116.132H116.146H116.16H116.174H116.188H116.202H116.216H116.23H116.244H116.258H116.272H116.286H116.3H116.315H116.329H116.343H116.357H116.371H116.386H116.4H116.414H116.428H116.443H116.457H116.471H116.486H116.5H116.514H116.529H116.543H116.558H116.572H116.586H116.601H116.615H116.63H116.644H116.659H116.673H116.688H116.702H116.717H116.731H116.746H116.761H117.261V28.7693V24.9775C117.261 22.9092 116.733 21.2667 115.591 20.1458C114.451 19.0266 112.783 18.511 110.683 18.511H103.657Z" fill="#FDA427" stroke="#FDA427"/>
<path d="M72.9582 47.3918H73.4582V46.8918V19.011V18.511H72.9582H72.8467C71.4251 18.511 70.2458 18.5853 69.3173 18.7392C68.3614 18.86 67.5085 19.1622 66.7702 19.6544L67.0475 20.0705L66.7701 19.6544C66.0561 20.1305 65.4976 20.6807 65.1171 21.3122C64.7289 21.9197 64.4381 22.8727 64.2136 24.1074L64.2134 24.1073L64.2115 24.1196C64.0225 25.3293 63.909 26.5393 63.8712 27.7497C63.8337 28.9108 63.8152 30.8137 63.8152 33.4532C63.8152 36.1016 63.9083 38.512 64.0953 40.6836C64.1705 41.8819 64.3224 42.8194 64.5758 43.453L64.5811 43.466L64.587 43.4787C64.8605 44.0648 65.2093 44.6644 65.6308 45.2777C66.1527 46.0481 67.0635 46.5683 68.2515 46.8994C69.4464 47.2324 70.9836 47.3918 72.8467 47.3918H72.9582ZM88.2908 38.0814V37.5814H87.7908H87.7766H87.7625H87.7483H87.7342H87.72H87.7059H87.6917H87.6775H87.6634H87.6492H87.6351H87.6209H87.6067H87.5926H87.5784H87.5643H87.5501H87.536H87.5218H87.5076H87.4935H87.4793H87.4652H87.451H87.4368H87.4227H87.4085H87.3944H87.3802H87.3661H87.3519H87.3377H87.3236H87.3094H87.2953H87.2811H87.2669H87.2528H87.2386H87.2245H87.2103H87.1962H87.182H87.1678H87.1537H87.1395H87.1254H87.1112H87.097H87.0829H87.0687H87.0546H87.0404H87.0263H87.0121H86.9979H86.9838H86.9696H86.9555H86.9413H86.9272H86.913H86.8988H86.8847H86.8705H86.8564H86.8422H86.828H86.8139H86.7997H86.7856H86.7714H86.7573H86.7431H86.7289H86.7148H86.7006H86.6865H86.6723H86.6581H86.644H86.6298H86.6157H86.6015H86.5874H86.5732H86.559H86.5449H86.5307H86.5166H86.5024H86.4882H86.4741H86.4599H86.4458H86.4316H86.4175H86.4033H86.3891H86.375H86.3608H86.3467H86.3325H86.3183H86.3042H86.29H86.2759H86.2617H86.2476H86.2334H86.2192H86.2051H86.1909H86.1768H86.1626H86.1484H86.1343H86.1201H86.106H86.0918H86.0777H86.0635H86.0493H86.0352H86.021H86.0069H85.9927H85.9785H85.9644H85.9502H85.9361H85.9219H85.9078H85.8936H85.8794H85.8653H85.8511H85.837H85.8228H85.8087H85.7945H85.7803H85.7662H85.752H85.7379H85.7237H85.7095H85.6954H85.6812H85.6671H85.6529H85.6388H85.6246H85.6104H85.5963H85.5821H85.568H85.5538H85.5396H85.5255H85.5113H85.4972H85.483H85.4689H85.4547H85.4405H85.4264H85.4122H85.3981H85.3839H85.3697H85.3556H85.3414H85.3273H85.3131H85.299H85.2848H85.2706H85.2565H85.2423H85.2282H85.214H85.1998H85.1857H85.1715H85.1574H85.1432H85.1291H85.1149H85.1007H85.0866H85.0724H85.0583H85.0441H85.0299H85.0158H85.0016H84.9875H84.9733H84.9592H84.945H84.9308H84.9167H84.9025H84.8884H84.8742H84.8601H84.8459H84.8317H84.8176H84.8034H84.7893H84.7751H84.7609H84.7468H84.7326H84.7185H84.7043H84.6902H84.676H84.6618H84.6477H84.6335H84.6194H84.6052H84.591H84.5769H84.5627H84.5486H84.5344H84.5203H84.5061H84.4919H84.4778H84.4636H84.4495H84.4353H84.4211H84.407H84.3928H84.3787H84.3645H84.3504H84.3362H84.322H84.3079H84.2937H84.2796H84.2654H84.2512H84.2371H84.2229H84.2088H84.1946H84.1805H84.1663H84.1521H84.138H84.1238H84.1097H84.0955H84.0813H84.0672H84.053H84.0389H84.0247H84.0106H83.9964H83.9822H83.9681H83.9539H83.9398H83.9256H83.9114H83.8973H83.8831H83.869H83.8548H83.8407H83.8265H83.8123H83.7982H83.784H83.7699H83.7557H83.7416H83.7274H83.7132H83.6991H83.6849H83.6708H83.6566H83.6424H83.6283H83.6141H83.6H83.5858H83.5717H83.5575H83.5433H83.5292H83.515H83.5009H83.4867H83.4725H83.4584H83.4442H83.4301H83.4159H83.4018H83.3876H83.3734H83.3593H83.3451H83.331H83.3168H83.3026H83.2885H83.2743H83.2602H83.246H83.2319H83.2177H83.2035H83.1894H83.1752H83.1611H83.1469H83.1327H83.1186H83.1044H83.0903H83.0761H83.062H83.0478H83.0336H83.0195H83.0053H82.9912H82.977H82.9628H82.9487H82.9345H82.9204H82.9062H82.8921H82.8779H82.8637H82.8496H82.8354H82.8213H82.8071H82.793H82.7788H82.7646H82.7505H82.7363H82.7222H82.708H82.6938H82.6797H82.6655H82.6514H82.6372H82.6231H82.6089H82.5947H82.5806H82.5664H82.5523H82.5381H82.5239H82.5098H82.4956H82.4815H82.4673H82.4532H82.439H82.4248H82.4107H82.3965H82.3824H82.3682H82.354H82.3399H82.3257H82.3116H82.2974H82.2833H82.2691H82.2549H82.2408H82.2266H82.2125H82.1983H82.1841H82.17H82.1558H82.1417H82.1275H82.1134H82.0992H82.085H82.0709H82.0567H82.0426H82.0284H82.0142H82.0001H81.9859H81.9718H81.9576H81.9435H81.9293H81.9151H81.901H81.8868H81.8727H81.8585H81.8444H81.8302H81.816H81.8019H81.7877H81.7736H81.7594H81.7452H81.7311H81.7169H81.7028H81.6886H81.6745H81.6603H81.6461H81.632H81.6178H81.6037H81.5895H81.5753H81.5612H81.547H81.5329H81.5187H81.5046H81.4904H81.4762H81.4621H81.4479H81.4338H81.4196H81.4054H81.3913H81.3771H81.363H81.3488H81.3347H81.3205H81.3063H81.2922H81.278H81.2639H81.2497H81.2355H81.2214H81.2072H81.1931H81.1789H81.1648H81.1506H81.1364H81.1223H81.1081H81.094H81.0798H81.0656H81.0515H81.0373H81.0232H81.009H80.9949H80.9807H80.9665H80.9524H80.9382H80.9241H80.9099H80.8958H80.8816H80.8674H80.8533H80.8391H80.825H80.8108H80.7966H80.7825H80.7683H80.7542H80.74H80.7259H80.7117H80.6975H80.6834H80.6692H80.6551H80.6409H80.6267H80.6126H80.5984H80.5843H80.5701H80.556H80.5418C80.4228 37.5814 80.2661 37.6056 80.0996 37.6378C80.0243 37.6397 79.9465 37.646 79.8722 37.6608C79.8281 37.6697 79.7582 37.6864 79.6828 37.7234C79.6495 37.7335 79.6177 37.7453 79.5894 37.7566C79.5244 37.7826 79.4501 37.8174 79.3702 37.8573L79.3424 37.8712L79.3165 37.8885C79.1735 37.9838 79.0998 38.1183 79.0611 38.2086C79.0195 38.3057 78.9936 38.4106 78.976 38.5103C78.9407 38.7105 78.9266 38.9624 78.9266 39.2524V41.0368C78.9266 41.6097 78.8427 41.9172 78.7585 42.0575C78.7397 42.0699 78.6787 42.1053 78.5335 42.1388C78.3435 42.1827 78.0694 42.2096 77.698 42.2096H74.6868H74.1868V42.7096V46.8918V47.3918H74.6868H81.7128C83.8136 47.3918 85.4814 46.8762 86.6216 45.7569C87.7634 44.6361 88.2908 42.9935 88.2908 40.9253V38.0814ZM74.6868 18.511H74.1868V19.011V23.1931V23.6931H74.6868H77.698C78.066 23.6931 78.3334 23.7244 78.5159 23.7735C78.6912 23.8207 78.7373 23.8703 78.7408 23.8741C78.7411 23.8744 78.7411 23.8744 78.7409 23.8741L78.7517 23.8892L78.7636 23.9035C78.7855 23.9297 78.831 24.0059 78.8683 24.1776C78.9046 24.3448 78.9266 24.5714 78.9266 24.8659V29.1038C78.9266 29.6678 78.7767 29.8841 78.6474 29.9703L78.6358 29.978L78.6247 29.9863C78.5642 30.0317 78.4273 30.0963 78.1634 30.1458C77.907 30.1939 77.5686 30.2209 77.1403 30.2209H74.1292H73.6292V30.7209V34.903V35.403H74.1292H82.3262C84.2147 35.403 85.7244 34.9703 86.7628 34.0167C87.8093 33.0556 88.2908 31.6459 88.2908 29.8845V24.9775C88.2908 22.9363 87.8098 21.3067 86.7636 20.1768C85.6844 19.0112 83.749 18.511 81.1552 18.511H74.6868Z" fill="#FDA427" stroke="#FDA427"/>
<path d="M44.4591 18.511H43.9591V19.011V23.1931V23.6931H44.4591H47.6932C48.1582 23.6931 48.5149 23.7248 48.7744 23.7798C49.0456 23.8373 49.151 23.9082 49.1798 23.937L49.1916 23.9488L49.2041 23.9597C49.3479 24.0855 49.4795 24.3419 49.4795 24.866V44.6613C49.4795 45.4272 49.6948 46.0952 50.1671 46.6147C50.6414 47.1365 51.2633 47.3918 51.9869 47.3918H58.3437H58.8437V46.8918V24.9775C58.8437 22.9092 58.3163 21.2667 57.1745 20.1458C56.0343 19.0266 54.3665 18.511 52.2657 18.511H44.4591ZM34.7008 6.07617H34.2008V6.57617V44.6613C34.2008 45.4272 34.4162 46.0952 34.8885 46.6147C35.3628 47.1365 35.9846 47.3918 36.7082 47.3918H43.065H43.565V46.8918V10.8698C43.565 9.48377 43.0913 8.32503 42.128 7.4413C41.1835 6.50226 39.8101 6.07617 38.1023 6.07617H34.7008Z" fill="#FDA427" stroke="#FDA427"/>
<path d="M11.0371 47.3918H11.5371V46.8918V6.57617V6.07617H11.0371H10.3679C8.86245 6.07617 7.58032 6.18855 6.53038 6.42111C5.46893 6.62662 4.53065 7.11887 3.72276 7.88628C2.97332 8.59633 2.37896 9.4079 1.94297 10.3195L1.94289 10.3195L1.93886 10.3283C1.53559 11.2155 1.23085 12.5392 1.00615 14.2616C0.781037 15.9501 0.631128 17.6936 0.556195 19.492L0.556087 19.492L0.55587 19.5024C0.518576 21.2926 0.5 24.3641 0.5 28.7135C0.5 33.0352 0.66746 36.4982 1.00605 39.0941C1.23095 40.8183 1.53549 42.1563 1.9355 43.0763L1.93909 43.0846L1.94297 43.0927C2.37764 44.0015 2.96912 44.8283 3.71333 45.5725L3.72263 45.5818L3.7324 45.5906C4.53836 46.3159 5.46961 46.8021 6.51948 47.0444L6.52345 47.0453C7.57468 47.2789 8.85913 47.3918 10.3679 47.3918H11.0371ZM13.2675 6.07617H12.7675V6.57617V11.8735V12.3735H13.2675H18.1746C18.4831 12.3735 18.6955 12.4043 18.8315 12.4476C18.9301 12.479 18.9624 12.508 18.9689 12.5148L18.989 12.5501L19.0172 12.5839C19.0817 12.6614 19.1801 12.9102 19.1801 13.4906V17.84C19.1801 18.0977 19.1948 18.3292 19.2295 18.5263C19.2625 18.7131 19.3219 18.9206 19.4474 19.088C19.6096 19.3042 19.8584 19.396 20.0535 19.4419C20.2646 19.4916 20.5167 19.511 20.7953 19.511H27.8213C28.2272 19.511 28.5886 19.3469 28.8228 18.9956C29.0332 18.6801 29.102 18.2701 29.102 17.84V12.8215C29.102 10.417 28.3601 8.60803 26.7604 7.55422C25.265 6.54491 23.1038 6.07617 20.3493 6.07617H13.2675ZM12.7675 46.8918V47.3918H13.2675H20.3493C23.1038 47.3918 25.265 46.923 26.7604 45.9137C28.3601 44.8599 29.102 43.0509 29.102 40.6465V35.6279C29.102 35.1978 29.0332 34.7878 28.8228 34.4723C28.5886 34.1211 28.2272 33.9569 27.8213 33.9569H20.7953C20.5167 33.9569 20.2646 33.9763 20.0535 34.026C19.8584 34.0719 19.6096 34.1637 19.4474 34.38C19.3219 34.5473 19.2625 34.7549 19.2295 34.9416C19.1948 35.1388 19.1801 35.3702 19.1801 35.6279V39.9773C19.1801 40.5451 19.0866 40.8403 18.9944 40.9692L18.9928 40.9715C18.9838 40.9781 18.9467 41.0024 18.8515 41.0284C18.7073 41.0677 18.4872 41.0944 18.1746 41.0944H13.2675H12.7675V41.5944V46.8918Z" fill="#FDA427" stroke="#FDA427"/>
</svg>
