<svg width="329" height="329" viewBox="0 0 329 329" fill="none" xmlns="http://www.w3.org/2000/svg">
<rect width="329" height="329" fill="#FDA427"/>
<path d="M234.818 34.7421L234.818 34.7421C237.456 36.5786 238.187 40.3267 236.469 43.1227L199.343 103.573C198.892 104.308 198.296 104.93 197.595 105.397C196.894 105.864 196.105 106.164 195.283 106.275C194.46 106.387 193.625 106.306 192.835 106.041C192.045 105.775 191.32 105.33 190.71 104.738L234.818 34.7421ZM234.818 34.7421C233.55 33.8596 232.002 33.5481 230.515 33.8792C229.029 34.2103 227.732 35.1551 226.906 36.4997L226.906 36.4997L193.446 90.9746L174.382 72.526C173.262 71.4422 171.78 70.8736 170.262 70.9505C168.744 71.0273 167.321 71.7429 166.304 72.9339C165.287 74.1243 164.759 75.6928 164.83 77.2943C164.902 78.8957 165.568 80.4046 166.687 81.4878L166.861 81.3082L166.687 81.4878L190.71 104.738L234.818 34.7421Z" fill="white" stroke="white" stroke-width="0.5"/>
<path d="M179.2 128.992L196.786 127.409C205.243 127.409 211.585 129.523 215.814 133.751C220.234 137.787 222.445 143.073 222.445 149.608V271.269H189.579C186.504 271.269 184.005 270.212 182.083 268.097C180.161 265.983 179.2 263.196 179.2 259.737V128.992ZM199.669 104.057C197.555 105.979 199.669 103.309 199.669 104.057V104.057Z" fill="white"/>
<mask id="mask0_950_1086" style="mask-type:alpha" maskUnits="userSpaceOnUse" x="93" y="48" width="87" height="246">
<rect width="86.4888" height="245.052" transform="translate(93 48.4148)" fill="white"/>
</mask>
<g mask="url(#mask0_950_1086)">
<path d="M100.68 62.8297H118.266C126.723 62.8297 133.066 64.9438 137.294 69.1722C141.715 73.2083 143.925 78.4937 143.925 85.0285V271.268H111.059C107.984 271.268 105.485 270.211 103.563 268.096C101.641 265.982 100.68 263.195 100.68 259.736V62.8297ZM178.52 205.825H211.386C214.461 205.825 216.96 206.882 218.882 208.996C220.804 211.11 221.765 213.897 221.765 217.356V271.268H188.899C185.824 271.268 183.325 270.211 181.403 268.096C179.481 265.982 178.52 263.195 178.52 259.736V205.825ZM218.882 127.12V166.905C218.882 187.47 208.407 197.752 187.458 197.752H151.132V176.13H166.7C170.736 176.13 173.235 175.553 174.196 174.4C175.157 173.055 175.637 170.748 175.637 167.481V138.94C175.637 131.06 179.097 127.12 186.016 127.12H218.882Z" fill="white"/>
</g>
</svg>
